<mxfile host="app.diagrams.net" modified="2023-07-18T05:52:26.313Z" agent="Mozilla/5.0 (Windows NT 10.0; Win64; x64) AppleWebKit/537.36 (KHTML, like Gecko) Chrome/114.0.0.0 Safari/537.36" etag="7OFb3Dhi-a36BsvgXaKo" version="21.6.2" type="device">
  <diagram name="Seite-1" id="DwYQbe0N0wQA__1leaxB">
    <mxGraphModel dx="1434" dy="859" grid="1" gridSize="10" guides="1" tooltips="1" connect="1" arrows="1" fold="1" page="1" pageScale="1" pageWidth="827" pageHeight="1169" math="0" shadow="0">
      <root>
        <mxCell id="0" />
        <mxCell id="1" parent="0" />
        <mxCell id="hKUcNuaekfX47iBpW89c-22" value="" style="ellipse;whiteSpace=wrap;html=1;strokeColor=#FF3333;gradientColor=none;fillColor=none;strokeWidth=5;" parent="1" vertex="1">
          <mxGeometry x="660" y="415" width="155" height="130" as="geometry" />
        </mxCell>
        <mxCell id="hKUcNuaekfX47iBpW89c-1" value="User Command Service" style="points=[[0.25,0,0],[0.5,0,0],[0.75,0,0],[1,0.25,0],[1,0.5,0],[1,0.75,0],[0.75,1,0],[0.5,1,0],[0.25,1,0],[0,0.75,0],[0,0.5,0],[0,0.25,0]];shape=mxgraph.bpmn.task;whiteSpace=wrap;rectStyle=rounded;size=10;html=1;taskMarker=abstract;verticalAlign=top;" parent="1" vertex="1">
          <mxGeometry x="210" y="130" width="446" height="100" as="geometry" />
        </mxCell>
        <mxCell id="hKUcNuaekfX47iBpW89c-3" value="Command Handler" style="shape=process;whiteSpace=wrap;html=1;backgroundOutline=1;" parent="1" vertex="1">
          <mxGeometry x="230" y="160" width="120" height="60" as="geometry" />
        </mxCell>
        <mxCell id="hKUcNuaekfX47iBpW89c-4" value="" style="endArrow=classic;html=1;rounded=0;entryX=0;entryY=0.5;entryDx=0;entryDy=0;entryPerimeter=0;" parent="1" source="hKUcNuaekfX47iBpW89c-19" target="hKUcNuaekfX47iBpW89c-1" edge="1">
          <mxGeometry width="50" height="50" relative="1" as="geometry">
            <mxPoint x="90" y="320" as="sourcePoint" />
            <mxPoint x="130" y="220" as="targetPoint" />
          </mxGeometry>
        </mxCell>
        <mxCell id="hKUcNuaekfX47iBpW89c-5" value="Domain Model" style="rounded=1;whiteSpace=wrap;html=1;" parent="1" vertex="1">
          <mxGeometry x="380" y="160" width="120" height="60" as="geometry" />
        </mxCell>
        <mxCell id="hKUcNuaekfX47iBpW89c-6" value="" style="endArrow=classic;html=1;rounded=0;" parent="1" source="hKUcNuaekfX47iBpW89c-3" target="hKUcNuaekfX47iBpW89c-5" edge="1">
          <mxGeometry width="50" height="50" relative="1" as="geometry">
            <mxPoint x="90" y="280" as="sourcePoint" />
            <mxPoint x="220" y="190" as="targetPoint" />
          </mxGeometry>
        </mxCell>
        <mxCell id="hKUcNuaekfX47iBpW89c-7" value="Event Store" style="shape=cylinder3;whiteSpace=wrap;html=1;boundedLbl=1;backgroundOutline=1;size=15;" parent="1" vertex="1">
          <mxGeometry x="550" y="140" width="60" height="80" as="geometry" />
        </mxCell>
        <mxCell id="hKUcNuaekfX47iBpW89c-8" value="" style="endArrow=classic;html=1;rounded=0;" parent="1" source="hKUcNuaekfX47iBpW89c-5" target="hKUcNuaekfX47iBpW89c-7" edge="1">
          <mxGeometry width="50" height="50" relative="1" as="geometry">
            <mxPoint x="360" y="200" as="sourcePoint" />
            <mxPoint x="390" y="200" as="targetPoint" />
          </mxGeometry>
        </mxCell>
        <mxCell id="hKUcNuaekfX47iBpW89c-9" value="Event Bus" style="rounded=1;whiteSpace=wrap;html=1;" parent="1" vertex="1">
          <mxGeometry x="380" y="290" width="120" height="60" as="geometry" />
        </mxCell>
        <mxCell id="hKUcNuaekfX47iBpW89c-10" value="Events" style="endArrow=classic;html=1;rounded=0;" parent="1" source="hKUcNuaekfX47iBpW89c-5" target="hKUcNuaekfX47iBpW89c-9" edge="1">
          <mxGeometry width="50" height="50" relative="1" as="geometry">
            <mxPoint x="90" y="280" as="sourcePoint" />
            <mxPoint x="220" y="190" as="targetPoint" />
          </mxGeometry>
        </mxCell>
        <mxCell id="hKUcNuaekfX47iBpW89c-11" value="User Query Handler" style="points=[[0.25,0,0],[0.5,0,0],[0.75,0,0],[1,0.25,0],[1,0.5,0],[1,0.75,0],[0.75,1,0],[0.5,1,0],[0.25,1,0],[0,0.75,0],[0,0.5,0],[0,0.25,0]];shape=mxgraph.bpmn.task;whiteSpace=wrap;rectStyle=rounded;size=10;html=1;taskMarker=abstract;verticalAlign=top;" parent="1" vertex="1">
          <mxGeometry x="210" y="410" width="446" height="120" as="geometry" />
        </mxCell>
        <mxCell id="hKUcNuaekfX47iBpW89c-12" value="Event Handler" style="shape=process;whiteSpace=wrap;html=1;backgroundOutline=1;" parent="1" vertex="1">
          <mxGeometry x="520" y="450" width="120" height="60" as="geometry" />
        </mxCell>
        <mxCell id="hKUcNuaekfX47iBpW89c-13" value="DB" style="shape=cylinder3;whiteSpace=wrap;html=1;boundedLbl=1;backgroundOutline=1;size=15;" parent="1" vertex="1">
          <mxGeometry x="403" y="440" width="60" height="80" as="geometry" />
        </mxCell>
        <mxCell id="hKUcNuaekfX47iBpW89c-14" value="" style="endArrow=classic;html=1;rounded=0;" parent="1" source="hKUcNuaekfX47iBpW89c-12" target="hKUcNuaekfX47iBpW89c-13" edge="1">
          <mxGeometry width="50" height="50" relative="1" as="geometry">
            <mxPoint x="90" y="280" as="sourcePoint" />
            <mxPoint x="220" y="190" as="targetPoint" />
          </mxGeometry>
        </mxCell>
        <mxCell id="hKUcNuaekfX47iBpW89c-15" value="" style="endArrow=classic;html=1;rounded=0;" parent="1" source="hKUcNuaekfX47iBpW89c-9" target="hKUcNuaekfX47iBpW89c-12" edge="1">
          <mxGeometry width="50" height="50" relative="1" as="geometry">
            <mxPoint x="90" y="280" as="sourcePoint" />
            <mxPoint x="220" y="190" as="targetPoint" />
          </mxGeometry>
        </mxCell>
        <mxCell id="hKUcNuaekfX47iBpW89c-16" value="Command Handler" style="shape=process;whiteSpace=wrap;html=1;backgroundOutline=1;" parent="1" vertex="1">
          <mxGeometry x="260" y="450" width="120" height="60" as="geometry" />
        </mxCell>
        <mxCell id="hKUcNuaekfX47iBpW89c-17" value="" style="endArrow=classic;html=1;rounded=0;" parent="1" source="hKUcNuaekfX47iBpW89c-13" target="hKUcNuaekfX47iBpW89c-16" edge="1">
          <mxGeometry width="50" height="50" relative="1" as="geometry">
            <mxPoint x="476" y="360" as="sourcePoint" />
            <mxPoint x="564" y="460" as="targetPoint" />
          </mxGeometry>
        </mxCell>
        <mxCell id="hKUcNuaekfX47iBpW89c-18" value="" style="endArrow=classic;html=1;rounded=0;entryX=0;entryY=0.5;entryDx=0;entryDy=0;entryPerimeter=0;" parent="1" source="hKUcNuaekfX47iBpW89c-19" target="hKUcNuaekfX47iBpW89c-11" edge="1">
          <mxGeometry width="50" height="50" relative="1" as="geometry">
            <mxPoint x="100" y="370" as="sourcePoint" />
            <mxPoint x="220" y="190" as="targetPoint" />
          </mxGeometry>
        </mxCell>
        <mxCell id="hKUcNuaekfX47iBpW89c-19" value="User" style="ellipse;shape=cloud;whiteSpace=wrap;html=1;" parent="1" vertex="1">
          <mxGeometry y="280" width="120" height="80" as="geometry" />
        </mxCell>
        <mxCell id="hKUcNuaekfX47iBpW89c-20" value="Kafka" style="shape=cylinder3;whiteSpace=wrap;html=1;boundedLbl=1;backgroundOutline=1;size=15;" parent="1" vertex="1">
          <mxGeometry x="710" y="440" width="60" height="80" as="geometry" />
        </mxCell>
        <mxCell id="hKUcNuaekfX47iBpW89c-21" value="" style="endArrow=classic;html=1;rounded=0;" parent="1" source="hKUcNuaekfX47iBpW89c-12" target="hKUcNuaekfX47iBpW89c-20" edge="1">
          <mxGeometry width="50" height="50" relative="1" as="geometry">
            <mxPoint x="530" y="490" as="sourcePoint" />
            <mxPoint x="473" y="490" as="targetPoint" />
          </mxGeometry>
        </mxCell>
        <mxCell id="hKUcNuaekfX47iBpW89c-24" value="User Command Service" style="points=[[0.25,0,0],[0.5,0,0],[0.75,0,0],[1,0.25,0],[1,0.5,0],[1,0.75,0],[0.75,1,0],[0.5,1,0],[0.25,1,0],[0,0.75,0],[0,0.5,0],[0,0.25,0]];shape=mxgraph.bpmn.task;whiteSpace=wrap;rectStyle=rounded;size=10;html=1;taskMarker=abstract;verticalAlign=top;" parent="1" vertex="1">
          <mxGeometry x="210" y="740" width="446" height="100" as="geometry" />
        </mxCell>
        <mxCell id="hKUcNuaekfX47iBpW89c-25" value="Command Handler" style="shape=process;whiteSpace=wrap;html=1;backgroundOutline=1;" parent="1" vertex="1">
          <mxGeometry x="230" y="770" width="120" height="60" as="geometry" />
        </mxCell>
        <mxCell id="hKUcNuaekfX47iBpW89c-26" value="" style="endArrow=classic;html=1;rounded=0;entryX=0;entryY=0.5;entryDx=0;entryDy=0;entryPerimeter=0;" parent="1" source="hKUcNuaekfX47iBpW89c-41" target="hKUcNuaekfX47iBpW89c-24" edge="1">
          <mxGeometry width="50" height="50" relative="1" as="geometry">
            <mxPoint x="90" y="930" as="sourcePoint" />
            <mxPoint x="130" y="830" as="targetPoint" />
          </mxGeometry>
        </mxCell>
        <mxCell id="hKUcNuaekfX47iBpW89c-27" value="Domain Model" style="rounded=1;whiteSpace=wrap;html=1;" parent="1" vertex="1">
          <mxGeometry x="380" y="770" width="120" height="60" as="geometry" />
        </mxCell>
        <mxCell id="hKUcNuaekfX47iBpW89c-28" value="" style="endArrow=classic;html=1;rounded=0;" parent="1" source="hKUcNuaekfX47iBpW89c-25" target="hKUcNuaekfX47iBpW89c-27" edge="1">
          <mxGeometry width="50" height="50" relative="1" as="geometry">
            <mxPoint x="90" y="890" as="sourcePoint" />
            <mxPoint x="220" y="800" as="targetPoint" />
          </mxGeometry>
        </mxCell>
        <mxCell id="hKUcNuaekfX47iBpW89c-29" value="Event Store" style="shape=cylinder3;whiteSpace=wrap;html=1;boundedLbl=1;backgroundOutline=1;size=15;" parent="1" vertex="1">
          <mxGeometry x="550" y="750" width="60" height="80" as="geometry" />
        </mxCell>
        <mxCell id="hKUcNuaekfX47iBpW89c-30" value="" style="endArrow=classic;html=1;rounded=0;" parent="1" source="hKUcNuaekfX47iBpW89c-27" target="hKUcNuaekfX47iBpW89c-29" edge="1">
          <mxGeometry width="50" height="50" relative="1" as="geometry">
            <mxPoint x="360" y="810" as="sourcePoint" />
            <mxPoint x="390" y="810" as="targetPoint" />
          </mxGeometry>
        </mxCell>
        <mxCell id="hKUcNuaekfX47iBpW89c-31" value="Event Bus" style="rounded=1;whiteSpace=wrap;html=1;" parent="1" vertex="1">
          <mxGeometry x="380" y="900" width="120" height="60" as="geometry" />
        </mxCell>
        <mxCell id="hKUcNuaekfX47iBpW89c-32" value="Events" style="endArrow=classic;html=1;rounded=0;" parent="1" source="hKUcNuaekfX47iBpW89c-27" target="hKUcNuaekfX47iBpW89c-31" edge="1">
          <mxGeometry width="50" height="50" relative="1" as="geometry">
            <mxPoint x="90" y="890" as="sourcePoint" />
            <mxPoint x="220" y="800" as="targetPoint" />
          </mxGeometry>
        </mxCell>
        <mxCell id="hKUcNuaekfX47iBpW89c-33" value="User Query Handler" style="points=[[0.25,0,0],[0.5,0,0],[0.75,0,0],[1,0.25,0],[1,0.5,0],[1,0.75,0],[0.75,1,0],[0.5,1,0],[0.25,1,0],[0,0.75,0],[0,0.5,0],[0,0.25,0]];shape=mxgraph.bpmn.task;whiteSpace=wrap;rectStyle=rounded;size=10;html=1;taskMarker=abstract;verticalAlign=top;" parent="1" vertex="1">
          <mxGeometry x="210" y="1020" width="446" height="120" as="geometry" />
        </mxCell>
        <mxCell id="hKUcNuaekfX47iBpW89c-34" value="Event Handler" style="shape=process;whiteSpace=wrap;html=1;backgroundOutline=1;" parent="1" vertex="1">
          <mxGeometry x="520" y="1060" width="120" height="60" as="geometry" />
        </mxCell>
        <mxCell id="hKUcNuaekfX47iBpW89c-35" value="DB" style="shape=cylinder3;whiteSpace=wrap;html=1;boundedLbl=1;backgroundOutline=1;size=15;" parent="1" vertex="1">
          <mxGeometry x="403" y="1050" width="60" height="80" as="geometry" />
        </mxCell>
        <mxCell id="hKUcNuaekfX47iBpW89c-36" value="" style="endArrow=classic;html=1;rounded=0;" parent="1" source="hKUcNuaekfX47iBpW89c-34" target="hKUcNuaekfX47iBpW89c-35" edge="1">
          <mxGeometry width="50" height="50" relative="1" as="geometry">
            <mxPoint x="90" y="890" as="sourcePoint" />
            <mxPoint x="220" y="800" as="targetPoint" />
          </mxGeometry>
        </mxCell>
        <mxCell id="hKUcNuaekfX47iBpW89c-38" value="Command Handler" style="shape=process;whiteSpace=wrap;html=1;backgroundOutline=1;" parent="1" vertex="1">
          <mxGeometry x="260" y="1060" width="120" height="60" as="geometry" />
        </mxCell>
        <mxCell id="hKUcNuaekfX47iBpW89c-39" value="" style="endArrow=classic;html=1;rounded=0;" parent="1" source="hKUcNuaekfX47iBpW89c-35" target="hKUcNuaekfX47iBpW89c-38" edge="1">
          <mxGeometry width="50" height="50" relative="1" as="geometry">
            <mxPoint x="476" y="970" as="sourcePoint" />
            <mxPoint x="564" y="1070" as="targetPoint" />
          </mxGeometry>
        </mxCell>
        <mxCell id="hKUcNuaekfX47iBpW89c-40" value="" style="endArrow=classic;html=1;rounded=0;entryX=0;entryY=0.5;entryDx=0;entryDy=0;entryPerimeter=0;" parent="1" source="hKUcNuaekfX47iBpW89c-41" target="hKUcNuaekfX47iBpW89c-33" edge="1">
          <mxGeometry width="50" height="50" relative="1" as="geometry">
            <mxPoint x="100" y="980" as="sourcePoint" />
            <mxPoint x="220" y="800" as="targetPoint" />
          </mxGeometry>
        </mxCell>
        <mxCell id="hKUcNuaekfX47iBpW89c-41" value="User" style="ellipse;shape=cloud;whiteSpace=wrap;html=1;" parent="1" vertex="1">
          <mxGeometry y="890" width="120" height="80" as="geometry" />
        </mxCell>
        <mxCell id="hKUcNuaekfX47iBpW89c-42" value="Kafka" style="shape=cylinder3;whiteSpace=wrap;html=1;boundedLbl=1;backgroundOutline=1;size=15;" parent="1" vertex="1">
          <mxGeometry x="260" y="630" width="60" height="80" as="geometry" />
        </mxCell>
        <mxCell id="hKUcNuaekfX47iBpW89c-43" value="" style="endArrow=classic;html=1;rounded=0;" parent="1" source="hKUcNuaekfX47iBpW89c-25" target="hKUcNuaekfX47iBpW89c-42" edge="1">
          <mxGeometry width="50" height="50" relative="1" as="geometry">
            <mxPoint x="530" y="1100" as="sourcePoint" />
            <mxPoint x="473" y="1100" as="targetPoint" />
          </mxGeometry>
        </mxCell>
        <mxCell id="hKUcNuaekfX47iBpW89c-44" value="" style="endArrow=classic;html=1;rounded=0;" parent="1" source="hKUcNuaekfX47iBpW89c-31" target="hKUcNuaekfX47iBpW89c-34" edge="1">
          <mxGeometry width="50" height="50" relative="1" as="geometry">
            <mxPoint x="600" y="960" as="sourcePoint" />
            <mxPoint x="650" y="910" as="targetPoint" />
          </mxGeometry>
        </mxCell>
        <mxCell id="hKUcNuaekfX47iBpW89c-45" value="&lt;font color=&quot;#ff3333&quot;&gt;No retry mechanism&lt;/font&gt;" style="edgeLabel;html=1;align=center;verticalAlign=middle;resizable=0;points=[];fontStyle=1" parent="hKUcNuaekfX47iBpW89c-44" vertex="1" connectable="0">
          <mxGeometry x="-0.5423" y="-2" relative="1" as="geometry">
            <mxPoint x="1" as="offset" />
          </mxGeometry>
        </mxCell>
        <mxCell id="LRS9lgiuyuksapjlibVT-1" value="User Service" style="points=[[0.25,0,0],[0.5,0,0],[0.75,0,0],[1,0.25,0],[1,0.5,0],[1,0.75,0],[0.75,1,0],[0.5,1,0],[0.25,1,0],[0,0.75,0],[0,0.5,0],[0,0.25,0]];shape=mxgraph.bpmn.task;whiteSpace=wrap;rectStyle=rounded;size=10;html=1;taskMarker=abstract;verticalAlign=top;" vertex="1" parent="1">
          <mxGeometry x="230" y="1470" width="446" height="110" as="geometry" />
        </mxCell>
        <mxCell id="LRS9lgiuyuksapjlibVT-2" value="Handler" style="shape=process;whiteSpace=wrap;html=1;backgroundOutline=1;" vertex="1" parent="1">
          <mxGeometry x="250" y="1500" width="120" height="60" as="geometry" />
        </mxCell>
        <mxCell id="LRS9lgiuyuksapjlibVT-3" value="" style="endArrow=classic;html=1;rounded=0;entryX=0;entryY=0.5;entryDx=0;entryDy=0;entryPerimeter=0;" edge="1" parent="1" source="LRS9lgiuyuksapjlibVT-17" target="LRS9lgiuyuksapjlibVT-1">
          <mxGeometry width="50" height="50" relative="1" as="geometry">
            <mxPoint x="120" y="1520" as="sourcePoint" />
            <mxPoint x="160" y="1420" as="targetPoint" />
          </mxGeometry>
        </mxCell>
        <mxCell id="LRS9lgiuyuksapjlibVT-4" value="Domain Model" style="rounded=1;whiteSpace=wrap;html=1;" vertex="1" parent="1">
          <mxGeometry x="408" y="1500" width="120" height="60" as="geometry" />
        </mxCell>
        <mxCell id="LRS9lgiuyuksapjlibVT-5" value="" style="endArrow=classic;html=1;rounded=0;" edge="1" parent="1" source="LRS9lgiuyuksapjlibVT-2" target="LRS9lgiuyuksapjlibVT-4">
          <mxGeometry width="50" height="50" relative="1" as="geometry">
            <mxPoint x="110" y="1620" as="sourcePoint" />
            <mxPoint x="240" y="1530" as="targetPoint" />
          </mxGeometry>
        </mxCell>
        <mxCell id="LRS9lgiuyuksapjlibVT-7" value="" style="endArrow=classic;html=1;rounded=0;" edge="1" parent="1" source="LRS9lgiuyuksapjlibVT-4" target="LRS9lgiuyuksapjlibVT-22">
          <mxGeometry width="50" height="50" relative="1" as="geometry">
            <mxPoint x="380" y="1540" as="sourcePoint" />
            <mxPoint x="570" y="1522.1428571428573" as="targetPoint" />
          </mxGeometry>
        </mxCell>
        <mxCell id="LRS9lgiuyuksapjlibVT-17" value="User" style="ellipse;shape=cloud;whiteSpace=wrap;html=1;" vertex="1" parent="1">
          <mxGeometry x="30" y="1485" width="120" height="80" as="geometry" />
        </mxCell>
        <mxCell id="LRS9lgiuyuksapjlibVT-18" value="Kafka" style="shape=cylinder3;whiteSpace=wrap;html=1;boundedLbl=1;backgroundOutline=1;size=15;" vertex="1" parent="1">
          <mxGeometry x="280" y="1360" width="60" height="80" as="geometry" />
        </mxCell>
        <mxCell id="LRS9lgiuyuksapjlibVT-19" value="" style="endArrow=classic;html=1;rounded=0;" edge="1" parent="1" source="LRS9lgiuyuksapjlibVT-2" target="LRS9lgiuyuksapjlibVT-18">
          <mxGeometry width="50" height="50" relative="1" as="geometry">
            <mxPoint x="550" y="1830" as="sourcePoint" />
            <mxPoint x="493" y="1830" as="targetPoint" />
          </mxGeometry>
        </mxCell>
        <mxCell id="LRS9lgiuyuksapjlibVT-22" value="DB" style="shape=cylinder3;whiteSpace=wrap;html=1;boundedLbl=1;backgroundOutline=1;size=15;" vertex="1" parent="1">
          <mxGeometry x="586" y="1490" width="60" height="80" as="geometry" />
        </mxCell>
      </root>
    </mxGraphModel>
  </diagram>
</mxfile>
